<svg width="32" height="32" viewBox="0 0 32 32" fill="none" xmlns="http://www.w3.org/2000/svg">
<path fill-rule="evenodd" clip-rule="evenodd" d="M27.708 4.29199C27.8012 4.38488 27.8751 4.49523 27.9255 4.61672C27.9759 4.73821 28.0018 4.86845 28.0018 4.99999C28.0018 5.13152 27.9759 5.26176 27.9255 5.38325C27.8751 5.50474 27.8012 5.6151 27.708 5.70799L5.70804 27.708C5.52027 27.8958 5.26559 28.0012 5.00004 28.0012C4.73449 28.0012 4.47982 27.8958 4.29204 27.708C4.10427 27.5202 3.99878 27.2655 3.99878 27C3.99878 26.7344 4.10427 26.4798 4.29204 26.292L26.292 4.29199C26.3849 4.19886 26.4953 4.12497 26.6168 4.07456C26.7383 4.02415 26.8685 3.9982 27 3.9982C27.1316 3.9982 27.2618 4.02415 27.3833 4.07456C27.5048 4.12497 27.6152 4.19886 27.708 4.29199Z" fill="#6A9B96"/>
<path fill-rule="evenodd" clip-rule="evenodd" d="M4.29208 4.29199C4.19895 4.38488 4.12507 4.49523 4.07465 4.61672C4.02424 4.73821 3.99829 4.86845 3.99829 4.99999C3.99829 5.13152 4.02424 5.26176 4.07465 5.38325C4.12507 5.50474 4.19895 5.6151 4.29208 5.70799L26.2921 27.708C26.4799 27.8958 26.7345 28.0012 27.0001 28.0012C27.2656 28.0012 27.5203 27.8958 27.7081 27.708C27.8959 27.5202 28.0013 27.2655 28.0013 27C28.0013 26.7344 27.8959 26.4798 27.7081 26.292L5.70808 4.29199C5.61519 4.19886 5.50484 4.12497 5.38335 4.07456C5.26186 4.02415 5.13161 3.9982 5.00008 3.9982C4.86854 3.9982 4.7383 4.02415 4.61681 4.07456C4.49532 4.12497 4.38497 4.19886 4.29208 4.29199Z" fill="#6A9B96"/>
</svg>
